<mxfile host="app.diagrams.net" modified="2024-05-05T08:32:46.572Z" agent="Mozilla/5.0 (Windows NT 10.0; Win64; x64) AppleWebKit/537.36 (KHTML, like Gecko) Chrome/124.0.0.0 Safari/537.36 Edg/124.0.0.0" etag="7UofRhFw09zbFJUo2euP" version="24.3.1" type="device">
  <diagram name="Page-1" id="5d7acffa-a066-3a61-03fe-96351882024d">
    <mxGraphModel dx="819" dy="437" grid="1" gridSize="10" guides="1" tooltips="1" connect="1" arrows="1" fold="1" page="1" pageScale="1" pageWidth="1100" pageHeight="850" background="#ffffff" math="0" shadow="0">
      <root>
        <mxCell id="0" />
        <mxCell id="1" parent="0" />
        <mxCell id="m00PbxsXyuJc370gs5CI-1" value="" style="rounded=0;whiteSpace=wrap;html=1;fillColor=none;" parent="1" vertex="1">
          <mxGeometry x="310" y="30" width="300" height="130" as="geometry" />
        </mxCell>
        <mxCell id="m00PbxsXyuJc370gs5CI-2" value="Felhasználó" style="ellipse;whiteSpace=wrap;html=1;" parent="1" vertex="1">
          <mxGeometry x="90" y="65" width="120" height="50" as="geometry" />
        </mxCell>
        <mxCell id="m00PbxsXyuJc370gs5CI-3" value="TimetableEffects" style="text;html=1;align=center;verticalAlign=middle;whiteSpace=wrap;rounded=0;" parent="1" vertex="1">
          <mxGeometry x="330" y="10" width="60" height="30" as="geometry" />
        </mxCell>
        <mxCell id="m00PbxsXyuJc370gs5CI-12" value="" style="group" parent="1" vertex="1" connectable="0">
          <mxGeometry x="410" y="60" width="100" height="60" as="geometry" />
        </mxCell>
        <mxCell id="m00PbxsXyuJc370gs5CI-9" value="&lt;div&gt;&lt;br&gt;&lt;/div&gt;Órarendek módosítása" style="rounded=0;whiteSpace=wrap;html=1;strokeColor=default;align=center;verticalAlign=middle;fontFamily=Helvetica;fontSize=12;fontColor=default;fillColor=default;" parent="m00PbxsXyuJc370gs5CI-12" vertex="1">
          <mxGeometry width="100" height="60" as="geometry" />
        </mxCell>
        <mxCell id="m00PbxsXyuJc370gs5CI-10" value="" style="endArrow=none;html=1;rounded=0;fontFamily=Helvetica;fontSize=12;fontColor=default;exitX=0;exitY=0.25;exitDx=0;exitDy=0;entryX=1;entryY=0.25;entryDx=0;entryDy=0;" parent="m00PbxsXyuJc370gs5CI-12" source="m00PbxsXyuJc370gs5CI-9" target="m00PbxsXyuJc370gs5CI-9" edge="1">
          <mxGeometry width="50" height="50" relative="1" as="geometry">
            <mxPoint x="190" y="50" as="sourcePoint" />
            <mxPoint x="240" as="targetPoint" />
          </mxGeometry>
        </mxCell>
        <mxCell id="m00PbxsXyuJc370gs5CI-11" value="" style="endArrow=none;html=1;rounded=0;fontFamily=Helvetica;fontSize=12;fontColor=default;exitX=0.25;exitY=0;exitDx=0;exitDy=0;" parent="m00PbxsXyuJc370gs5CI-12" source="m00PbxsXyuJc370gs5CI-9" edge="1">
          <mxGeometry width="50" height="50" relative="1" as="geometry">
            <mxPoint x="190" y="50" as="sourcePoint" />
            <mxPoint x="25" y="15" as="targetPoint" />
          </mxGeometry>
        </mxCell>
        <mxCell id="m00PbxsXyuJc370gs5CI-13" value="1" style="text;html=1;align=center;verticalAlign=middle;whiteSpace=wrap;rounded=0;fontFamily=Helvetica;fontSize=12;fontColor=default;" parent="m00PbxsXyuJc370gs5CI-12" vertex="1">
          <mxGeometry width="25" height="15" as="geometry" />
        </mxCell>
        <mxCell id="m00PbxsXyuJc370gs5CI-14" value="" style="endArrow=classic;html=1;rounded=0;fontFamily=Helvetica;fontSize=12;fontColor=default;exitX=1;exitY=0.5;exitDx=0;exitDy=0;entryX=0;entryY=0.5;entryDx=0;entryDy=0;" parent="1" source="m00PbxsXyuJc370gs5CI-2" target="m00PbxsXyuJc370gs5CI-9" edge="1">
          <mxGeometry width="50" height="50" relative="1" as="geometry">
            <mxPoint x="420" y="200" as="sourcePoint" />
            <mxPoint x="470" y="150" as="targetPoint" />
          </mxGeometry>
        </mxCell>
        <mxCell id="m00PbxsXyuJc370gs5CI-15" value="&lt;font style=&quot;font-size: 10px;&quot;&gt;[TIMETABLE] Update timetable&lt;/font&gt;" style="edgeLabel;html=1;align=center;verticalAlign=middle;resizable=0;points=[];strokeColor=default;fontFamily=Helvetica;fontSize=12;fontColor=default;fillColor=default;" parent="m00PbxsXyuJc370gs5CI-14" vertex="1" connectable="0">
          <mxGeometry x="-0.4991" relative="1" as="geometry">
            <mxPoint x="50" y="-10" as="offset" />
          </mxGeometry>
        </mxCell>
        <mxCell id="m00PbxsXyuJc370gs5CI-16" value="&lt;font style=&quot;font-size: 10px;&quot;&gt;órarendek, kiválasztott órarend&lt;/font&gt;" style="edgeLabel;html=1;align=center;verticalAlign=middle;resizable=0;points=[];strokeColor=default;fontFamily=Helvetica;fontSize=12;fontColor=default;fillColor=default;" parent="m00PbxsXyuJc370gs5CI-14" vertex="1" connectable="0">
          <mxGeometry x="-0.7718" y="-1" relative="1" as="geometry">
            <mxPoint x="77" y="9" as="offset" />
          </mxGeometry>
        </mxCell>
        <mxCell id="m00PbxsXyuJc370gs5CI-25" value="" style="group" parent="1" vertex="1" connectable="0">
          <mxGeometry x="710" y="120" width="150" height="20" as="geometry" />
        </mxCell>
        <mxCell id="m00PbxsXyuJc370gs5CI-17" value="&amp;nbsp; &amp;nbsp; &amp;nbsp; &amp;nbsp; &amp;nbsp; TimetableState" style="rounded=0;whiteSpace=wrap;html=1;strokeColor=default;align=center;verticalAlign=middle;fontFamily=Helvetica;fontSize=12;fontColor=default;fillColor=default;" parent="m00PbxsXyuJc370gs5CI-25" vertex="1">
          <mxGeometry width="150" height="20" as="geometry" />
        </mxCell>
        <mxCell id="m00PbxsXyuJc370gs5CI-18" value="" style="endArrow=none;html=1;rounded=0;fontFamily=Helvetica;fontSize=12;fontColor=default;entryX=0.25;entryY=0;entryDx=0;entryDy=0;exitX=0.25;exitY=1;exitDx=0;exitDy=0;" parent="m00PbxsXyuJc370gs5CI-25" source="m00PbxsXyuJc370gs5CI-17" target="m00PbxsXyuJc370gs5CI-17" edge="1">
          <mxGeometry width="50" height="50" relative="1" as="geometry">
            <mxPoint x="-324.99999999999994" y="120" as="sourcePoint" />
            <mxPoint x="-262.49999999999994" y="70" as="targetPoint" />
          </mxGeometry>
        </mxCell>
        <mxCell id="m00PbxsXyuJc370gs5CI-19" value="S1" style="text;html=1;align=center;verticalAlign=middle;whiteSpace=wrap;rounded=0;fontFamily=Helvetica;fontSize=12;fontColor=default;" parent="m00PbxsXyuJc370gs5CI-25" vertex="1">
          <mxGeometry width="37.5" height="20" as="geometry" />
        </mxCell>
        <mxCell id="m00PbxsXyuJc370gs5CI-26" value="" style="endArrow=classic;html=1;rounded=0;fontFamily=Helvetica;fontSize=12;fontColor=default;exitX=1;exitY=0.75;exitDx=0;exitDy=0;entryX=0;entryY=0.5;entryDx=0;entryDy=0;" parent="1" source="m00PbxsXyuJc370gs5CI-9" edge="1">
          <mxGeometry width="50" height="50" relative="1" as="geometry">
            <mxPoint x="510" y="90" as="sourcePoint" />
            <mxPoint x="710" y="130" as="targetPoint" />
            <Array as="points">
              <mxPoint x="570" y="130" />
            </Array>
          </mxGeometry>
        </mxCell>
        <mxCell id="m00PbxsXyuJc370gs5CI-27" value="&lt;font style=&quot;font-size: 10px;&quot;&gt;[TIMETABLE] Save timetable to store&lt;/font&gt;" style="edgeLabel;html=1;align=center;verticalAlign=middle;resizable=0;points=[];strokeColor=default;fontFamily=Helvetica;fontSize=12;fontColor=default;fillColor=default;" parent="m00PbxsXyuJc370gs5CI-26" vertex="1" connectable="0">
          <mxGeometry x="-0.4991" relative="1" as="geometry">
            <mxPoint x="50" y="-5" as="offset" />
          </mxGeometry>
        </mxCell>
        <mxCell id="m00PbxsXyuJc370gs5CI-28" value="&lt;span style=&quot;font-size: 10px;&quot;&gt;órarendek, kiválasztott órarend&lt;/span&gt;" style="edgeLabel;html=1;align=center;verticalAlign=middle;resizable=0;points=[];strokeColor=default;fontFamily=Helvetica;fontSize=12;fontColor=default;fillColor=default;" parent="m00PbxsXyuJc370gs5CI-26" vertex="1" connectable="0">
          <mxGeometry x="-0.7718" y="-1" relative="1" as="geometry">
            <mxPoint x="77" y="25" as="offset" />
          </mxGeometry>
        </mxCell>
        <mxCell id="m00PbxsXyuJc370gs5CI-29" value="" style="group" parent="1" vertex="1" connectable="0">
          <mxGeometry x="710" y="50" width="150" height="20" as="geometry" />
        </mxCell>
        <mxCell id="m00PbxsXyuJc370gs5CI-30" value="&amp;nbsp; &amp;nbsp; &amp;nbsp; &amp;nbsp; &amp;nbsp; &amp;nbsp;timetable-semesters" style="rounded=0;whiteSpace=wrap;html=1;strokeColor=default;align=center;verticalAlign=middle;fontFamily=Helvetica;fontSize=12;fontColor=default;fillColor=default;" parent="m00PbxsXyuJc370gs5CI-29" vertex="1">
          <mxGeometry width="150" height="20" as="geometry" />
        </mxCell>
        <mxCell id="m00PbxsXyuJc370gs5CI-31" value="" style="endArrow=none;html=1;rounded=0;fontFamily=Helvetica;fontSize=12;fontColor=default;entryX=0.25;entryY=0;entryDx=0;entryDy=0;exitX=0.25;exitY=1;exitDx=0;exitDy=0;" parent="m00PbxsXyuJc370gs5CI-29" source="m00PbxsXyuJc370gs5CI-30" target="m00PbxsXyuJc370gs5CI-30" edge="1">
          <mxGeometry width="50" height="50" relative="1" as="geometry">
            <mxPoint x="-260" y="120" as="sourcePoint" />
            <mxPoint x="-210" y="70" as="targetPoint" />
          </mxGeometry>
        </mxCell>
        <mxCell id="m00PbxsXyuJc370gs5CI-32" value="F1" style="text;html=1;align=center;verticalAlign=middle;whiteSpace=wrap;rounded=0;fontFamily=Helvetica;fontSize=12;fontColor=default;" parent="m00PbxsXyuJc370gs5CI-29" vertex="1">
          <mxGeometry width="38" height="20" as="geometry" />
        </mxCell>
        <mxCell id="m00PbxsXyuJc370gs5CI-33" value="" style="endArrow=classic;startArrow=classic;html=1;rounded=0;fontFamily=Helvetica;fontSize=12;fontColor=default;entryX=0;entryY=0.5;entryDx=0;entryDy=0;exitX=1;exitY=0.25;exitDx=0;exitDy=0;" parent="1" source="m00PbxsXyuJc370gs5CI-9" target="m00PbxsXyuJc370gs5CI-32" edge="1">
          <mxGeometry width="50" height="50" relative="1" as="geometry">
            <mxPoint x="420" y="200" as="sourcePoint" />
            <mxPoint x="470" y="150" as="targetPoint" />
            <Array as="points">
              <mxPoint x="570" y="60" />
            </Array>
          </mxGeometry>
        </mxCell>
        <mxCell id="m00PbxsXyuJc370gs5CI-35" value="" style="endArrow=none;html=1;rounded=0;fontFamily=Helvetica;fontSize=12;fontColor=default;exitX=0;exitY=0.5;exitDx=0;exitDy=0;entryX=0.5;entryY=0;entryDx=0;entryDy=0;" parent="1" source="m00PbxsXyuJc370gs5CI-2" target="m00PbxsXyuJc370gs5CI-2" edge="1">
          <mxGeometry width="50" height="50" relative="1" as="geometry">
            <mxPoint x="160" y="160" as="sourcePoint" />
            <mxPoint x="210" y="110" as="targetPoint" />
          </mxGeometry>
        </mxCell>
        <mxCell id="m00PbxsXyuJc370gs5CI-36" value="" style="rounded=0;whiteSpace=wrap;html=1;fillColor=none;" parent="1" vertex="1">
          <mxGeometry x="310" y="230" width="300" height="130" as="geometry" />
        </mxCell>
        <mxCell id="m00PbxsXyuJc370gs5CI-37" value="Admin&lt;div&gt;felhasználó&lt;/div&gt;" style="ellipse;whiteSpace=wrap;html=1;" parent="1" vertex="1">
          <mxGeometry x="50" y="435" width="120" height="50" as="geometry" />
        </mxCell>
        <mxCell id="m00PbxsXyuJc370gs5CI-38" value="UniversityEffects" style="text;html=1;align=center;verticalAlign=middle;whiteSpace=wrap;rounded=0;" parent="1" vertex="1">
          <mxGeometry x="330" y="210" width="60" height="30" as="geometry" />
        </mxCell>
        <mxCell id="m00PbxsXyuJc370gs5CI-39" value="" style="group" parent="1" vertex="1" connectable="0">
          <mxGeometry x="410" y="260" width="100" height="60" as="geometry" />
        </mxCell>
        <mxCell id="m00PbxsXyuJc370gs5CI-40" value="&lt;div&gt;&lt;br&gt;&lt;/div&gt;Egyetemek módosítása&lt;div&gt;&lt;/div&gt;" style="rounded=0;whiteSpace=wrap;html=1;strokeColor=default;align=center;verticalAlign=middle;fontFamily=Helvetica;fontSize=12;fontColor=default;fillColor=default;" parent="m00PbxsXyuJc370gs5CI-39" vertex="1">
          <mxGeometry width="100" height="60" as="geometry" />
        </mxCell>
        <mxCell id="m00PbxsXyuJc370gs5CI-41" value="" style="endArrow=none;html=1;rounded=0;fontFamily=Helvetica;fontSize=12;fontColor=default;exitX=0;exitY=0.25;exitDx=0;exitDy=0;entryX=1;entryY=0.25;entryDx=0;entryDy=0;" parent="m00PbxsXyuJc370gs5CI-39" source="m00PbxsXyuJc370gs5CI-40" target="m00PbxsXyuJc370gs5CI-40" edge="1">
          <mxGeometry width="50" height="50" relative="1" as="geometry">
            <mxPoint x="190" y="50" as="sourcePoint" />
            <mxPoint x="240" as="targetPoint" />
          </mxGeometry>
        </mxCell>
        <mxCell id="m00PbxsXyuJc370gs5CI-42" value="" style="endArrow=none;html=1;rounded=0;fontFamily=Helvetica;fontSize=12;fontColor=default;exitX=0.25;exitY=0;exitDx=0;exitDy=0;" parent="m00PbxsXyuJc370gs5CI-39" source="m00PbxsXyuJc370gs5CI-40" edge="1">
          <mxGeometry width="50" height="50" relative="1" as="geometry">
            <mxPoint x="190" y="50" as="sourcePoint" />
            <mxPoint x="25" y="15" as="targetPoint" />
          </mxGeometry>
        </mxCell>
        <mxCell id="m00PbxsXyuJc370gs5CI-43" value="2" style="text;html=1;align=center;verticalAlign=middle;whiteSpace=wrap;rounded=0;fontFamily=Helvetica;fontSize=12;fontColor=default;" parent="m00PbxsXyuJc370gs5CI-39" vertex="1">
          <mxGeometry width="25" height="15" as="geometry" />
        </mxCell>
        <mxCell id="m00PbxsXyuJc370gs5CI-44" value="" style="endArrow=classic;html=1;rounded=0;fontFamily=Helvetica;fontSize=12;fontColor=default;exitX=0.5;exitY=0;exitDx=0;exitDy=0;entryX=0;entryY=0.5;entryDx=0;entryDy=0;" parent="1" source="m00PbxsXyuJc370gs5CI-37" target="m00PbxsXyuJc370gs5CI-40" edge="1">
          <mxGeometry width="50" height="50" relative="1" as="geometry">
            <mxPoint x="420" y="400" as="sourcePoint" />
            <mxPoint x="470" y="350" as="targetPoint" />
            <Array as="points">
              <mxPoint x="110" y="290" />
            </Array>
          </mxGeometry>
        </mxCell>
        <mxCell id="m00PbxsXyuJc370gs5CI-45" value="&lt;font style=&quot;font-size: 10px;&quot;&gt;[UNIVERSITY] Save universities&lt;/font&gt;" style="edgeLabel;html=1;align=center;verticalAlign=middle;resizable=0;points=[];strokeColor=default;fontFamily=Helvetica;fontSize=12;fontColor=default;fillColor=default;" parent="m00PbxsXyuJc370gs5CI-44" vertex="1" connectable="0">
          <mxGeometry x="-0.4991" relative="1" as="geometry">
            <mxPoint x="80" y="-46" as="offset" />
          </mxGeometry>
        </mxCell>
        <mxCell id="m00PbxsXyuJc370gs5CI-46" value="&lt;font style=&quot;font-size: 10px;&quot;&gt;egyetemek&lt;/font&gt;" style="edgeLabel;html=1;align=center;verticalAlign=middle;resizable=0;points=[];strokeColor=default;fontFamily=Helvetica;fontSize=12;fontColor=default;fillColor=default;" parent="m00PbxsXyuJc370gs5CI-44" vertex="1" connectable="0">
          <mxGeometry x="-0.7718" y="-1" relative="1" as="geometry">
            <mxPoint x="69" y="-85" as="offset" />
          </mxGeometry>
        </mxCell>
        <mxCell id="m00PbxsXyuJc370gs5CI-47" value="" style="group" parent="1" vertex="1" connectable="0">
          <mxGeometry x="710" y="320" width="150" height="20" as="geometry" />
        </mxCell>
        <mxCell id="m00PbxsXyuJc370gs5CI-48" value="&amp;nbsp; &amp;nbsp; &amp;nbsp; &amp;nbsp; &amp;nbsp; CoreState" style="rounded=0;whiteSpace=wrap;html=1;strokeColor=default;align=center;verticalAlign=middle;fontFamily=Helvetica;fontSize=12;fontColor=default;fillColor=default;" parent="m00PbxsXyuJc370gs5CI-47" vertex="1">
          <mxGeometry width="150" height="20" as="geometry" />
        </mxCell>
        <mxCell id="m00PbxsXyuJc370gs5CI-49" value="" style="endArrow=none;html=1;rounded=0;fontFamily=Helvetica;fontSize=12;fontColor=default;entryX=0.25;entryY=0;entryDx=0;entryDy=0;exitX=0.25;exitY=1;exitDx=0;exitDy=0;" parent="m00PbxsXyuJc370gs5CI-47" source="m00PbxsXyuJc370gs5CI-48" target="m00PbxsXyuJc370gs5CI-48" edge="1">
          <mxGeometry width="50" height="50" relative="1" as="geometry">
            <mxPoint x="-325" y="120" as="sourcePoint" />
            <mxPoint x="-262.5" y="70" as="targetPoint" />
          </mxGeometry>
        </mxCell>
        <mxCell id="m00PbxsXyuJc370gs5CI-50" value="S2" style="text;html=1;align=center;verticalAlign=middle;whiteSpace=wrap;rounded=0;fontFamily=Helvetica;fontSize=12;fontColor=default;" parent="m00PbxsXyuJc370gs5CI-47" vertex="1">
          <mxGeometry width="37.5" height="20" as="geometry" />
        </mxCell>
        <mxCell id="m00PbxsXyuJc370gs5CI-51" value="" style="endArrow=classic;html=1;rounded=0;fontFamily=Helvetica;fontSize=12;fontColor=default;exitX=1;exitY=0.75;exitDx=0;exitDy=0;entryX=0;entryY=0.5;entryDx=0;entryDy=0;" parent="1" source="m00PbxsXyuJc370gs5CI-40" edge="1">
          <mxGeometry width="50" height="50" relative="1" as="geometry">
            <mxPoint x="510" y="290" as="sourcePoint" />
            <mxPoint x="710" y="330" as="targetPoint" />
            <Array as="points">
              <mxPoint x="570" y="330" />
            </Array>
          </mxGeometry>
        </mxCell>
        <mxCell id="m00PbxsXyuJc370gs5CI-52" value="&lt;font style=&quot;font-size: 10px;&quot;&gt;[UNIVERSITY] Save universities to store&lt;/font&gt;" style="edgeLabel;html=1;align=center;verticalAlign=middle;resizable=0;points=[];strokeColor=default;fontFamily=Helvetica;fontSize=12;fontColor=default;fillColor=default;" parent="m00PbxsXyuJc370gs5CI-51" vertex="1" connectable="0">
          <mxGeometry x="-0.4991" relative="1" as="geometry">
            <mxPoint x="50" y="-5" as="offset" />
          </mxGeometry>
        </mxCell>
        <mxCell id="m00PbxsXyuJc370gs5CI-53" value="&lt;font style=&quot;font-size: 10px;&quot;&gt;egyetemek&lt;/font&gt;" style="edgeLabel;html=1;align=center;verticalAlign=middle;resizable=0;points=[];strokeColor=default;fontFamily=Helvetica;fontSize=12;fontColor=default;fillColor=default;" parent="m00PbxsXyuJc370gs5CI-51" vertex="1" connectable="0">
          <mxGeometry x="-0.7718" y="-1" relative="1" as="geometry">
            <mxPoint x="77" y="25" as="offset" />
          </mxGeometry>
        </mxCell>
        <mxCell id="m00PbxsXyuJc370gs5CI-54" value="" style="group" parent="1" vertex="1" connectable="0">
          <mxGeometry x="710" y="250" width="150" height="20" as="geometry" />
        </mxCell>
        <mxCell id="m00PbxsXyuJc370gs5CI-55" value="&amp;nbsp; &amp;nbsp; &amp;nbsp; &amp;nbsp; &amp;nbsp; &amp;nbsp;core-universities" style="rounded=0;whiteSpace=wrap;html=1;strokeColor=default;align=center;verticalAlign=middle;fontFamily=Helvetica;fontSize=12;fontColor=default;fillColor=default;" parent="m00PbxsXyuJc370gs5CI-54" vertex="1">
          <mxGeometry width="150" height="20" as="geometry" />
        </mxCell>
        <mxCell id="m00PbxsXyuJc370gs5CI-56" value="" style="endArrow=none;html=1;rounded=0;fontFamily=Helvetica;fontSize=12;fontColor=default;entryX=0.25;entryY=0;entryDx=0;entryDy=0;exitX=0.25;exitY=1;exitDx=0;exitDy=0;" parent="m00PbxsXyuJc370gs5CI-54" source="m00PbxsXyuJc370gs5CI-55" target="m00PbxsXyuJc370gs5CI-55" edge="1">
          <mxGeometry width="50" height="50" relative="1" as="geometry">
            <mxPoint x="-260" y="120" as="sourcePoint" />
            <mxPoint x="-210" y="70" as="targetPoint" />
          </mxGeometry>
        </mxCell>
        <mxCell id="m00PbxsXyuJc370gs5CI-57" value="F2" style="text;html=1;align=center;verticalAlign=middle;whiteSpace=wrap;rounded=0;fontFamily=Helvetica;fontSize=12;fontColor=default;" parent="m00PbxsXyuJc370gs5CI-54" vertex="1">
          <mxGeometry width="38" height="20" as="geometry" />
        </mxCell>
        <mxCell id="m00PbxsXyuJc370gs5CI-59" value="" style="endArrow=classic;startArrow=classic;html=1;rounded=0;fontFamily=Helvetica;fontSize=12;fontColor=default;entryX=0;entryY=0.5;entryDx=0;entryDy=0;exitX=1;exitY=0.25;exitDx=0;exitDy=0;" parent="1" source="m00PbxsXyuJc370gs5CI-40" target="m00PbxsXyuJc370gs5CI-57" edge="1">
          <mxGeometry width="50" height="50" relative="1" as="geometry">
            <mxPoint x="420" y="400" as="sourcePoint" />
            <mxPoint x="470" y="350" as="targetPoint" />
            <Array as="points">
              <mxPoint x="570" y="260" />
            </Array>
          </mxGeometry>
        </mxCell>
        <mxCell id="m00PbxsXyuJc370gs5CI-62" value="" style="rounded=0;whiteSpace=wrap;html=1;fillColor=none;" parent="1" vertex="1">
          <mxGeometry x="310" y="400" width="300" height="130" as="geometry" />
        </mxCell>
        <mxCell id="m00PbxsXyuJc370gs5CI-64" value="UniversityMajorEffects" style="text;html=1;align=center;verticalAlign=middle;whiteSpace=wrap;rounded=0;" parent="1" vertex="1">
          <mxGeometry x="350" y="380" width="60" height="30" as="geometry" />
        </mxCell>
        <mxCell id="m00PbxsXyuJc370gs5CI-65" value="" style="group" parent="1" vertex="1" connectable="0">
          <mxGeometry x="410" y="430" width="100" height="60" as="geometry" />
        </mxCell>
        <mxCell id="m00PbxsXyuJc370gs5CI-66" value="&lt;div&gt;&lt;br&gt;&lt;/div&gt;Egyetemi szakok módosítása" style="rounded=0;whiteSpace=wrap;html=1;strokeColor=default;align=center;verticalAlign=middle;fontFamily=Helvetica;fontSize=12;fontColor=default;fillColor=default;" parent="m00PbxsXyuJc370gs5CI-65" vertex="1">
          <mxGeometry width="100" height="60" as="geometry" />
        </mxCell>
        <mxCell id="m00PbxsXyuJc370gs5CI-67" value="" style="endArrow=none;html=1;rounded=0;fontFamily=Helvetica;fontSize=12;fontColor=default;exitX=0;exitY=0.25;exitDx=0;exitDy=0;entryX=1;entryY=0.25;entryDx=0;entryDy=0;" parent="m00PbxsXyuJc370gs5CI-65" source="m00PbxsXyuJc370gs5CI-66" target="m00PbxsXyuJc370gs5CI-66" edge="1">
          <mxGeometry width="50" height="50" relative="1" as="geometry">
            <mxPoint x="190" y="50" as="sourcePoint" />
            <mxPoint x="240" as="targetPoint" />
          </mxGeometry>
        </mxCell>
        <mxCell id="m00PbxsXyuJc370gs5CI-68" value="" style="endArrow=none;html=1;rounded=0;fontFamily=Helvetica;fontSize=12;fontColor=default;exitX=0.25;exitY=0;exitDx=0;exitDy=0;" parent="m00PbxsXyuJc370gs5CI-65" source="m00PbxsXyuJc370gs5CI-66" edge="1">
          <mxGeometry width="50" height="50" relative="1" as="geometry">
            <mxPoint x="190" y="50" as="sourcePoint" />
            <mxPoint x="25" y="15" as="targetPoint" />
          </mxGeometry>
        </mxCell>
        <mxCell id="m00PbxsXyuJc370gs5CI-69" value="3" style="text;html=1;align=center;verticalAlign=middle;whiteSpace=wrap;rounded=0;fontFamily=Helvetica;fontSize=12;fontColor=default;" parent="m00PbxsXyuJc370gs5CI-65" vertex="1">
          <mxGeometry width="25" height="15" as="geometry" />
        </mxCell>
        <mxCell id="m00PbxsXyuJc370gs5CI-70" value="" style="endArrow=classic;html=1;rounded=0;fontFamily=Helvetica;fontSize=12;fontColor=default;exitX=1;exitY=0.5;exitDx=0;exitDy=0;entryX=0;entryY=0.5;entryDx=0;entryDy=0;" parent="1" source="m00PbxsXyuJc370gs5CI-37" target="m00PbxsXyuJc370gs5CI-66" edge="1">
          <mxGeometry width="50" height="50" relative="1" as="geometry">
            <mxPoint x="210" y="459.9999999999999" as="sourcePoint" />
            <mxPoint x="470" y="520" as="targetPoint" />
          </mxGeometry>
        </mxCell>
        <mxCell id="m00PbxsXyuJc370gs5CI-71" value="&lt;font style=&quot;font-size: 10px;&quot;&gt;[UNIVERSITY_MAJOR] Save university majors&lt;/font&gt;&lt;div&gt;&lt;font style=&quot;font-size: 10px;&quot;&gt;[UNIVERSITY_MAJOR] Save single university major&lt;/font&gt;&lt;/div&gt;" style="edgeLabel;html=1;align=center;verticalAlign=middle;resizable=0;points=[];strokeColor=default;fontFamily=Helvetica;fontSize=12;fontColor=default;fillColor=default;" parent="m00PbxsXyuJc370gs5CI-70" vertex="1" connectable="0">
          <mxGeometry x="-0.4991" relative="1" as="geometry">
            <mxPoint x="60" y="-20" as="offset" />
          </mxGeometry>
        </mxCell>
        <mxCell id="m00PbxsXyuJc370gs5CI-72" value="&lt;font style=&quot;font-size: 10px;&quot;&gt;szakok&lt;/font&gt;" style="edgeLabel;html=1;align=center;verticalAlign=middle;resizable=0;points=[];strokeColor=default;fontFamily=Helvetica;fontSize=12;fontColor=default;fillColor=default;" parent="m00PbxsXyuJc370gs5CI-70" vertex="1" connectable="0">
          <mxGeometry x="-0.7718" y="-1" relative="1" as="geometry">
            <mxPoint x="92" y="9" as="offset" />
          </mxGeometry>
        </mxCell>
        <mxCell id="m00PbxsXyuJc370gs5CI-73" value="" style="group" parent="1" vertex="1" connectable="0">
          <mxGeometry x="710" y="490" width="150" height="20" as="geometry" />
        </mxCell>
        <mxCell id="m00PbxsXyuJc370gs5CI-74" value="&amp;nbsp; &amp;nbsp; &amp;nbsp; &amp;nbsp; &amp;nbsp; CoreState" style="rounded=0;whiteSpace=wrap;html=1;strokeColor=default;align=center;verticalAlign=middle;fontFamily=Helvetica;fontSize=12;fontColor=default;fillColor=default;" parent="m00PbxsXyuJc370gs5CI-73" vertex="1">
          <mxGeometry width="150" height="20" as="geometry" />
        </mxCell>
        <mxCell id="m00PbxsXyuJc370gs5CI-75" value="" style="endArrow=none;html=1;rounded=0;fontFamily=Helvetica;fontSize=12;fontColor=default;entryX=0.25;entryY=0;entryDx=0;entryDy=0;exitX=0.25;exitY=1;exitDx=0;exitDy=0;" parent="m00PbxsXyuJc370gs5CI-73" source="m00PbxsXyuJc370gs5CI-74" target="m00PbxsXyuJc370gs5CI-74" edge="1">
          <mxGeometry width="50" height="50" relative="1" as="geometry">
            <mxPoint x="-325" y="120" as="sourcePoint" />
            <mxPoint x="-262.5" y="70" as="targetPoint" />
          </mxGeometry>
        </mxCell>
        <mxCell id="m00PbxsXyuJc370gs5CI-76" value="S2" style="text;html=1;align=center;verticalAlign=middle;whiteSpace=wrap;rounded=0;fontFamily=Helvetica;fontSize=12;fontColor=default;" parent="m00PbxsXyuJc370gs5CI-73" vertex="1">
          <mxGeometry width="37.5" height="20" as="geometry" />
        </mxCell>
        <mxCell id="m00PbxsXyuJc370gs5CI-77" value="" style="endArrow=classic;html=1;rounded=0;fontFamily=Helvetica;fontSize=12;fontColor=default;exitX=1;exitY=0.75;exitDx=0;exitDy=0;entryX=0;entryY=0.5;entryDx=0;entryDy=0;" parent="1" source="m00PbxsXyuJc370gs5CI-66" edge="1">
          <mxGeometry width="50" height="50" relative="1" as="geometry">
            <mxPoint x="510" y="460" as="sourcePoint" />
            <mxPoint x="710" y="500" as="targetPoint" />
            <Array as="points">
              <mxPoint x="570" y="500" />
            </Array>
          </mxGeometry>
        </mxCell>
        <mxCell id="m00PbxsXyuJc370gs5CI-78" value="&lt;span style=&quot;font-size: 10px;&quot;&gt;[UNIVERSITY_MAJOR] Save&lt;/span&gt;&lt;div&gt;&lt;span style=&quot;font-size: 10px;&quot;&gt;university majors to store&lt;/span&gt;&lt;/div&gt;" style="edgeLabel;html=1;align=center;verticalAlign=middle;resizable=0;points=[];strokeColor=default;fontFamily=Helvetica;fontSize=12;fontColor=default;fillColor=default;" parent="m00PbxsXyuJc370gs5CI-77" vertex="1" connectable="0">
          <mxGeometry x="-0.4991" relative="1" as="geometry">
            <mxPoint x="72" y="-15" as="offset" />
          </mxGeometry>
        </mxCell>
        <mxCell id="m00PbxsXyuJc370gs5CI-79" value="&lt;font style=&quot;font-size: 10px;&quot;&gt;szakok&lt;/font&gt;" style="edgeLabel;html=1;align=center;verticalAlign=middle;resizable=0;points=[];strokeColor=default;fontFamily=Helvetica;fontSize=12;fontColor=default;fillColor=default;" parent="m00PbxsXyuJc370gs5CI-77" vertex="1" connectable="0">
          <mxGeometry x="-0.7718" y="-1" relative="1" as="geometry">
            <mxPoint x="99" y="25" as="offset" />
          </mxGeometry>
        </mxCell>
        <mxCell id="m00PbxsXyuJc370gs5CI-80" value="" style="group" parent="1" vertex="1" connectable="0">
          <mxGeometry x="710" y="420" width="150" height="20" as="geometry" />
        </mxCell>
        <mxCell id="m00PbxsXyuJc370gs5CI-81" value="&amp;nbsp; &amp;nbsp; &amp;nbsp; &amp;nbsp; &amp;nbsp; &amp;nbsp;core-majors" style="rounded=0;whiteSpace=wrap;html=1;strokeColor=default;align=center;verticalAlign=middle;fontFamily=Helvetica;fontSize=12;fontColor=default;fillColor=default;" parent="m00PbxsXyuJc370gs5CI-80" vertex="1">
          <mxGeometry width="150" height="20" as="geometry" />
        </mxCell>
        <mxCell id="m00PbxsXyuJc370gs5CI-82" value="" style="endArrow=none;html=1;rounded=0;fontFamily=Helvetica;fontSize=12;fontColor=default;entryX=0.25;entryY=0;entryDx=0;entryDy=0;exitX=0.25;exitY=1;exitDx=0;exitDy=0;" parent="m00PbxsXyuJc370gs5CI-80" source="m00PbxsXyuJc370gs5CI-81" target="m00PbxsXyuJc370gs5CI-81" edge="1">
          <mxGeometry width="50" height="50" relative="1" as="geometry">
            <mxPoint x="-260" y="120" as="sourcePoint" />
            <mxPoint x="-210" y="70" as="targetPoint" />
          </mxGeometry>
        </mxCell>
        <mxCell id="m00PbxsXyuJc370gs5CI-83" value="F3" style="text;html=1;align=center;verticalAlign=middle;whiteSpace=wrap;rounded=0;fontFamily=Helvetica;fontSize=12;fontColor=default;" parent="m00PbxsXyuJc370gs5CI-80" vertex="1">
          <mxGeometry width="38" height="20" as="geometry" />
        </mxCell>
        <mxCell id="m00PbxsXyuJc370gs5CI-85" value="" style="endArrow=classic;startArrow=classic;html=1;rounded=0;fontFamily=Helvetica;fontSize=12;fontColor=default;entryX=0;entryY=0.5;entryDx=0;entryDy=0;exitX=1;exitY=0.25;exitDx=0;exitDy=0;" parent="1" source="m00PbxsXyuJc370gs5CI-66" target="m00PbxsXyuJc370gs5CI-83" edge="1">
          <mxGeometry width="50" height="50" relative="1" as="geometry">
            <mxPoint x="420" y="570" as="sourcePoint" />
            <mxPoint x="470" y="520" as="targetPoint" />
            <Array as="points">
              <mxPoint x="570" y="430" />
            </Array>
          </mxGeometry>
        </mxCell>
        <mxCell id="m00PbxsXyuJc370gs5CI-87" value="" style="rounded=0;whiteSpace=wrap;html=1;fillColor=none;" parent="1" vertex="1">
          <mxGeometry x="310" y="580" width="300" height="130" as="geometry" />
        </mxCell>
        <mxCell id="m00PbxsXyuJc370gs5CI-88" value="UniversitySubjectEffects" style="text;html=1;align=center;verticalAlign=middle;whiteSpace=wrap;rounded=0;" parent="1" vertex="1">
          <mxGeometry x="350" y="560" width="60" height="30" as="geometry" />
        </mxCell>
        <mxCell id="m00PbxsXyuJc370gs5CI-89" value="" style="group" parent="1" vertex="1" connectable="0">
          <mxGeometry x="410" y="610" width="100" height="60" as="geometry" />
        </mxCell>
        <mxCell id="m00PbxsXyuJc370gs5CI-90" value="&lt;div&gt;&lt;br&gt;&lt;/div&gt;Egyetemi tárgyak módosítása" style="rounded=0;whiteSpace=wrap;html=1;strokeColor=default;align=center;verticalAlign=middle;fontFamily=Helvetica;fontSize=12;fontColor=default;fillColor=default;" parent="m00PbxsXyuJc370gs5CI-89" vertex="1">
          <mxGeometry width="100" height="60" as="geometry" />
        </mxCell>
        <mxCell id="m00PbxsXyuJc370gs5CI-91" value="" style="endArrow=none;html=1;rounded=0;fontFamily=Helvetica;fontSize=12;fontColor=default;exitX=0;exitY=0.25;exitDx=0;exitDy=0;entryX=1;entryY=0.25;entryDx=0;entryDy=0;" parent="m00PbxsXyuJc370gs5CI-89" source="m00PbxsXyuJc370gs5CI-90" target="m00PbxsXyuJc370gs5CI-90" edge="1">
          <mxGeometry width="50" height="50" relative="1" as="geometry">
            <mxPoint x="190" y="50" as="sourcePoint" />
            <mxPoint x="240" as="targetPoint" />
          </mxGeometry>
        </mxCell>
        <mxCell id="m00PbxsXyuJc370gs5CI-92" value="" style="endArrow=none;html=1;rounded=0;fontFamily=Helvetica;fontSize=12;fontColor=default;exitX=0.25;exitY=0;exitDx=0;exitDy=0;" parent="m00PbxsXyuJc370gs5CI-89" source="m00PbxsXyuJc370gs5CI-90" edge="1">
          <mxGeometry width="50" height="50" relative="1" as="geometry">
            <mxPoint x="190" y="50" as="sourcePoint" />
            <mxPoint x="25" y="15" as="targetPoint" />
          </mxGeometry>
        </mxCell>
        <mxCell id="m00PbxsXyuJc370gs5CI-93" value="4" style="text;html=1;align=center;verticalAlign=middle;whiteSpace=wrap;rounded=0;fontFamily=Helvetica;fontSize=12;fontColor=default;" parent="m00PbxsXyuJc370gs5CI-89" vertex="1">
          <mxGeometry width="25" height="15" as="geometry" />
        </mxCell>
        <mxCell id="m00PbxsXyuJc370gs5CI-94" value="" style="endArrow=classic;html=1;rounded=0;fontFamily=Helvetica;fontSize=12;fontColor=default;exitX=0.5;exitY=1;exitDx=0;exitDy=0;entryX=0;entryY=0.5;entryDx=0;entryDy=0;" parent="1" source="m00PbxsXyuJc370gs5CI-37" target="m00PbxsXyuJc370gs5CI-90" edge="1">
          <mxGeometry width="50" height="50" relative="1" as="geometry">
            <mxPoint x="170" y="640" as="sourcePoint" />
            <mxPoint x="470" y="700" as="targetPoint" />
            <Array as="points">
              <mxPoint x="110" y="640" />
            </Array>
          </mxGeometry>
        </mxCell>
        <mxCell id="m00PbxsXyuJc370gs5CI-95" value="&lt;font style=&quot;font-size: 10px;&quot;&gt;[UNIVERSITY_SUBJECT] Save university subjects&lt;/font&gt;&lt;div&gt;&lt;font style=&quot;font-size: 10px;&quot;&gt;[UNIVERSITY_SUBJECT] Save single university subject&lt;/font&gt;&lt;/div&gt;" style="edgeLabel;html=1;align=center;verticalAlign=middle;resizable=0;points=[];strokeColor=default;fontFamily=Helvetica;fontSize=12;fontColor=default;fillColor=default;" parent="m00PbxsXyuJc370gs5CI-94" vertex="1" connectable="0">
          <mxGeometry x="-0.4991" relative="1" as="geometry">
            <mxPoint x="130" y="21" as="offset" />
          </mxGeometry>
        </mxCell>
        <mxCell id="m00PbxsXyuJc370gs5CI-96" value="&lt;font style=&quot;font-size: 10px;&quot;&gt;tárgyak&lt;/font&gt;" style="edgeLabel;html=1;align=center;verticalAlign=middle;resizable=0;points=[];strokeColor=default;fontFamily=Helvetica;fontSize=12;fontColor=default;fillColor=default;" parent="m00PbxsXyuJc370gs5CI-94" vertex="1" connectable="0">
          <mxGeometry x="-0.7718" y="-1" relative="1" as="geometry">
            <mxPoint x="121" y="113" as="offset" />
          </mxGeometry>
        </mxCell>
        <mxCell id="m00PbxsXyuJc370gs5CI-97" value="" style="group" parent="1" vertex="1" connectable="0">
          <mxGeometry x="710" y="670" width="150" height="20" as="geometry" />
        </mxCell>
        <mxCell id="m00PbxsXyuJc370gs5CI-98" value="&amp;nbsp; &amp;nbsp; &amp;nbsp; &amp;nbsp; &amp;nbsp; CoreState" style="rounded=0;whiteSpace=wrap;html=1;strokeColor=default;align=center;verticalAlign=middle;fontFamily=Helvetica;fontSize=12;fontColor=default;fillColor=default;" parent="m00PbxsXyuJc370gs5CI-97" vertex="1">
          <mxGeometry width="150" height="20" as="geometry" />
        </mxCell>
        <mxCell id="m00PbxsXyuJc370gs5CI-99" value="" style="endArrow=none;html=1;rounded=0;fontFamily=Helvetica;fontSize=12;fontColor=default;entryX=0.25;entryY=0;entryDx=0;entryDy=0;exitX=0.25;exitY=1;exitDx=0;exitDy=0;" parent="m00PbxsXyuJc370gs5CI-97" source="m00PbxsXyuJc370gs5CI-98" target="m00PbxsXyuJc370gs5CI-98" edge="1">
          <mxGeometry width="50" height="50" relative="1" as="geometry">
            <mxPoint x="-325" y="120" as="sourcePoint" />
            <mxPoint x="-262.5" y="70" as="targetPoint" />
          </mxGeometry>
        </mxCell>
        <mxCell id="m00PbxsXyuJc370gs5CI-100" value="S2" style="text;html=1;align=center;verticalAlign=middle;whiteSpace=wrap;rounded=0;fontFamily=Helvetica;fontSize=12;fontColor=default;" parent="m00PbxsXyuJc370gs5CI-97" vertex="1">
          <mxGeometry width="37.5" height="20" as="geometry" />
        </mxCell>
        <mxCell id="m00PbxsXyuJc370gs5CI-101" value="" style="endArrow=classic;html=1;rounded=0;fontFamily=Helvetica;fontSize=12;fontColor=default;exitX=1;exitY=0.75;exitDx=0;exitDy=0;entryX=0;entryY=0.5;entryDx=0;entryDy=0;" parent="1" source="m00PbxsXyuJc370gs5CI-90" edge="1">
          <mxGeometry width="50" height="50" relative="1" as="geometry">
            <mxPoint x="510" y="640" as="sourcePoint" />
            <mxPoint x="710" y="680" as="targetPoint" />
            <Array as="points">
              <mxPoint x="570" y="680" />
            </Array>
          </mxGeometry>
        </mxCell>
        <mxCell id="m00PbxsXyuJc370gs5CI-102" value="&lt;span style=&quot;font-size: 10px;&quot;&gt;[UNIVERSITY_SUBJECT] Save&lt;/span&gt;&lt;div&gt;&lt;span style=&quot;font-size: 10px;&quot;&gt;university subjects to store&lt;/span&gt;&lt;/div&gt;" style="edgeLabel;html=1;align=center;verticalAlign=middle;resizable=0;points=[];strokeColor=default;fontFamily=Helvetica;fontSize=12;fontColor=default;fillColor=default;" parent="m00PbxsXyuJc370gs5CI-101" vertex="1" connectable="0">
          <mxGeometry x="-0.4991" relative="1" as="geometry">
            <mxPoint x="72" y="-15" as="offset" />
          </mxGeometry>
        </mxCell>
        <mxCell id="m00PbxsXyuJc370gs5CI-103" value="&lt;font style=&quot;font-size: 10px;&quot;&gt;tárgyak&lt;/font&gt;" style="edgeLabel;html=1;align=center;verticalAlign=middle;resizable=0;points=[];strokeColor=default;fontFamily=Helvetica;fontSize=12;fontColor=default;fillColor=default;" parent="m00PbxsXyuJc370gs5CI-101" vertex="1" connectable="0">
          <mxGeometry x="-0.7718" y="-1" relative="1" as="geometry">
            <mxPoint x="99" y="25" as="offset" />
          </mxGeometry>
        </mxCell>
        <mxCell id="m00PbxsXyuJc370gs5CI-104" value="" style="group" parent="1" vertex="1" connectable="0">
          <mxGeometry x="710" y="600" width="150" height="20" as="geometry" />
        </mxCell>
        <mxCell id="m00PbxsXyuJc370gs5CI-105" value="&amp;nbsp; &amp;nbsp; &amp;nbsp; &amp;nbsp; &amp;nbsp; &amp;nbsp;core-subjects" style="rounded=0;whiteSpace=wrap;html=1;strokeColor=default;align=center;verticalAlign=middle;fontFamily=Helvetica;fontSize=12;fontColor=default;fillColor=default;" parent="m00PbxsXyuJc370gs5CI-104" vertex="1">
          <mxGeometry width="150" height="20" as="geometry" />
        </mxCell>
        <mxCell id="m00PbxsXyuJc370gs5CI-106" value="" style="endArrow=none;html=1;rounded=0;fontFamily=Helvetica;fontSize=12;fontColor=default;entryX=0.25;entryY=0;entryDx=0;entryDy=0;exitX=0.25;exitY=1;exitDx=0;exitDy=0;" parent="m00PbxsXyuJc370gs5CI-104" source="m00PbxsXyuJc370gs5CI-105" target="m00PbxsXyuJc370gs5CI-105" edge="1">
          <mxGeometry width="50" height="50" relative="1" as="geometry">
            <mxPoint x="-260" y="120" as="sourcePoint" />
            <mxPoint x="-210" y="70" as="targetPoint" />
          </mxGeometry>
        </mxCell>
        <mxCell id="m00PbxsXyuJc370gs5CI-107" value="F4" style="text;html=1;align=center;verticalAlign=middle;whiteSpace=wrap;rounded=0;fontFamily=Helvetica;fontSize=12;fontColor=default;" parent="m00PbxsXyuJc370gs5CI-104" vertex="1">
          <mxGeometry width="38" height="20" as="geometry" />
        </mxCell>
        <mxCell id="m00PbxsXyuJc370gs5CI-109" value="" style="endArrow=classic;startArrow=classic;html=1;rounded=0;fontFamily=Helvetica;fontSize=12;fontColor=default;entryX=0;entryY=0.5;entryDx=0;entryDy=0;exitX=1;exitY=0.25;exitDx=0;exitDy=0;" parent="1" source="m00PbxsXyuJc370gs5CI-90" target="m00PbxsXyuJc370gs5CI-107" edge="1">
          <mxGeometry width="50" height="50" relative="1" as="geometry">
            <mxPoint x="420" y="750" as="sourcePoint" />
            <mxPoint x="470" y="700" as="targetPoint" />
            <Array as="points">
              <mxPoint x="570" y="610" />
            </Array>
          </mxGeometry>
        </mxCell>
        <mxCell id="m00PbxsXyuJc370gs5CI-113" value="" style="rounded=0;whiteSpace=wrap;html=1;fillColor=none;" parent="1" vertex="1">
          <mxGeometry x="310" y="760" width="300" height="260" as="geometry" />
        </mxCell>
        <mxCell id="m00PbxsXyuJc370gs5CI-114" value="Felhasználó" style="ellipse;whiteSpace=wrap;html=1;" parent="1" vertex="1">
          <mxGeometry x="90" y="925" width="120" height="50" as="geometry" />
        </mxCell>
        <mxCell id="m00PbxsXyuJc370gs5CI-115" value="CompletionsEffects" style="text;html=1;align=center;verticalAlign=middle;whiteSpace=wrap;rounded=0;" parent="1" vertex="1">
          <mxGeometry x="340" y="740" width="60" height="30" as="geometry" />
        </mxCell>
        <mxCell id="m00PbxsXyuJc370gs5CI-116" value="" style="group" parent="1" vertex="1" connectable="0">
          <mxGeometry x="410" y="790" width="100" height="60" as="geometry" />
        </mxCell>
        <mxCell id="m00PbxsXyuJc370gs5CI-117" value="&lt;div&gt;&lt;/div&gt;&lt;div&gt;&lt;br&gt;&lt;/div&gt;&lt;div&gt;Teljesítések módosítása&lt;/div&gt;" style="rounded=0;whiteSpace=wrap;html=1;strokeColor=default;align=center;verticalAlign=middle;fontFamily=Helvetica;fontSize=12;fontColor=default;fillColor=default;" parent="m00PbxsXyuJc370gs5CI-116" vertex="1">
          <mxGeometry width="100" height="60" as="geometry" />
        </mxCell>
        <mxCell id="m00PbxsXyuJc370gs5CI-118" value="" style="endArrow=none;html=1;rounded=0;fontFamily=Helvetica;fontSize=12;fontColor=default;exitX=0;exitY=0.25;exitDx=0;exitDy=0;entryX=1;entryY=0.25;entryDx=0;entryDy=0;" parent="m00PbxsXyuJc370gs5CI-116" source="m00PbxsXyuJc370gs5CI-117" target="m00PbxsXyuJc370gs5CI-117" edge="1">
          <mxGeometry width="50" height="50" relative="1" as="geometry">
            <mxPoint x="190" y="50" as="sourcePoint" />
            <mxPoint x="240" as="targetPoint" />
          </mxGeometry>
        </mxCell>
        <mxCell id="m00PbxsXyuJc370gs5CI-119" value="" style="endArrow=none;html=1;rounded=0;fontFamily=Helvetica;fontSize=12;fontColor=default;exitX=0.25;exitY=0;exitDx=0;exitDy=0;" parent="m00PbxsXyuJc370gs5CI-116" source="m00PbxsXyuJc370gs5CI-117" edge="1">
          <mxGeometry width="50" height="50" relative="1" as="geometry">
            <mxPoint x="190" y="50" as="sourcePoint" />
            <mxPoint x="25" y="15" as="targetPoint" />
          </mxGeometry>
        </mxCell>
        <mxCell id="m00PbxsXyuJc370gs5CI-120" value="5" style="text;html=1;align=center;verticalAlign=middle;whiteSpace=wrap;rounded=0;fontFamily=Helvetica;fontSize=12;fontColor=default;" parent="m00PbxsXyuJc370gs5CI-116" vertex="1">
          <mxGeometry width="25" height="15" as="geometry" />
        </mxCell>
        <mxCell id="m00PbxsXyuJc370gs5CI-121" value="" style="endArrow=classic;html=1;rounded=0;fontFamily=Helvetica;fontSize=12;fontColor=default;exitX=0.5;exitY=0;exitDx=0;exitDy=0;entryX=0;entryY=0.5;entryDx=0;entryDy=0;" parent="1" source="m00PbxsXyuJc370gs5CI-114" target="m00PbxsXyuJc370gs5CI-117" edge="1">
          <mxGeometry width="50" height="50" relative="1" as="geometry">
            <mxPoint x="420" y="930" as="sourcePoint" />
            <mxPoint x="470" y="880" as="targetPoint" />
            <Array as="points">
              <mxPoint x="150" y="820" />
            </Array>
          </mxGeometry>
        </mxCell>
        <mxCell id="m00PbxsXyuJc370gs5CI-122" value="&lt;font style=&quot;font-size: 10px;&quot;&gt;[COMPLETIONS] Save completions&lt;/font&gt;" style="edgeLabel;html=1;align=center;verticalAlign=middle;resizable=0;points=[];strokeColor=default;fontFamily=Helvetica;fontSize=12;fontColor=default;fillColor=default;" parent="m00PbxsXyuJc370gs5CI-121" vertex="1" connectable="0">
          <mxGeometry x="-0.4991" relative="1" as="geometry">
            <mxPoint x="110" y="-23" as="offset" />
          </mxGeometry>
        </mxCell>
        <mxCell id="m00PbxsXyuJc370gs5CI-123" value="&lt;font style=&quot;font-size: 10px;&quot;&gt;teljesítések&lt;/font&gt;" style="edgeLabel;html=1;align=center;verticalAlign=middle;resizable=0;points=[];strokeColor=default;fontFamily=Helvetica;fontSize=12;fontColor=default;fillColor=default;" parent="m00PbxsXyuJc370gs5CI-121" vertex="1" connectable="0">
          <mxGeometry x="-0.7718" y="-1" relative="1" as="geometry">
            <mxPoint x="109" y="-53" as="offset" />
          </mxGeometry>
        </mxCell>
        <mxCell id="m00PbxsXyuJc370gs5CI-124" value="" style="group" parent="1" vertex="1" connectable="0">
          <mxGeometry x="710" y="850" width="150" height="20" as="geometry" />
        </mxCell>
        <mxCell id="m00PbxsXyuJc370gs5CI-125" value="&amp;nbsp; &amp;nbsp; &amp;nbsp; &amp;nbsp; &amp;nbsp; CoreState" style="rounded=0;whiteSpace=wrap;html=1;strokeColor=default;align=center;verticalAlign=middle;fontFamily=Helvetica;fontSize=12;fontColor=default;fillColor=default;" parent="m00PbxsXyuJc370gs5CI-124" vertex="1">
          <mxGeometry width="150" height="20" as="geometry" />
        </mxCell>
        <mxCell id="m00PbxsXyuJc370gs5CI-126" value="" style="endArrow=none;html=1;rounded=0;fontFamily=Helvetica;fontSize=12;fontColor=default;entryX=0.25;entryY=0;entryDx=0;entryDy=0;exitX=0.25;exitY=1;exitDx=0;exitDy=0;" parent="m00PbxsXyuJc370gs5CI-124" source="m00PbxsXyuJc370gs5CI-125" target="m00PbxsXyuJc370gs5CI-125" edge="1">
          <mxGeometry width="50" height="50" relative="1" as="geometry">
            <mxPoint x="-324.99999999999994" y="120" as="sourcePoint" />
            <mxPoint x="-262.49999999999994" y="70" as="targetPoint" />
          </mxGeometry>
        </mxCell>
        <mxCell id="m00PbxsXyuJc370gs5CI-127" value="S2" style="text;html=1;align=center;verticalAlign=middle;whiteSpace=wrap;rounded=0;fontFamily=Helvetica;fontSize=12;fontColor=default;" parent="m00PbxsXyuJc370gs5CI-124" vertex="1">
          <mxGeometry width="37.5" height="20" as="geometry" />
        </mxCell>
        <mxCell id="m00PbxsXyuJc370gs5CI-128" value="" style="endArrow=classic;html=1;rounded=0;fontFamily=Helvetica;fontSize=12;fontColor=default;exitX=1;exitY=0.75;exitDx=0;exitDy=0;entryX=0;entryY=0.5;entryDx=0;entryDy=0;" parent="1" source="m00PbxsXyuJc370gs5CI-117" edge="1">
          <mxGeometry width="50" height="50" relative="1" as="geometry">
            <mxPoint x="510" y="820" as="sourcePoint" />
            <mxPoint x="710" y="860" as="targetPoint" />
            <Array as="points">
              <mxPoint x="570" y="860" />
            </Array>
          </mxGeometry>
        </mxCell>
        <mxCell id="m00PbxsXyuJc370gs5CI-129" value="&lt;font style=&quot;font-size: 10px;&quot;&gt;[COMPLETIONS] Save completions to store&lt;/font&gt;" style="edgeLabel;html=1;align=center;verticalAlign=middle;resizable=0;points=[];strokeColor=default;fontFamily=Helvetica;fontSize=12;fontColor=default;fillColor=default;" parent="m00PbxsXyuJc370gs5CI-128" vertex="1" connectable="0">
          <mxGeometry x="-0.4991" relative="1" as="geometry">
            <mxPoint x="50" y="-5" as="offset" />
          </mxGeometry>
        </mxCell>
        <mxCell id="m00PbxsXyuJc370gs5CI-130" value="&lt;span style=&quot;font-size: 10px;&quot;&gt;teljesítések&lt;/span&gt;" style="edgeLabel;html=1;align=center;verticalAlign=middle;resizable=0;points=[];strokeColor=default;fontFamily=Helvetica;fontSize=12;fontColor=default;fillColor=default;" parent="m00PbxsXyuJc370gs5CI-128" vertex="1" connectable="0">
          <mxGeometry x="-0.7718" y="-1" relative="1" as="geometry">
            <mxPoint x="77" y="25" as="offset" />
          </mxGeometry>
        </mxCell>
        <mxCell id="m00PbxsXyuJc370gs5CI-131" value="" style="group" parent="1" vertex="1" connectable="0">
          <mxGeometry x="710" y="780" width="150" height="20" as="geometry" />
        </mxCell>
        <mxCell id="m00PbxsXyuJc370gs5CI-132" value="&amp;nbsp; &amp;nbsp; &amp;nbsp; &amp;nbsp; &amp;nbsp; &amp;nbsp;core-completions" style="rounded=0;whiteSpace=wrap;html=1;strokeColor=default;align=center;verticalAlign=middle;fontFamily=Helvetica;fontSize=12;fontColor=default;fillColor=default;" parent="m00PbxsXyuJc370gs5CI-131" vertex="1">
          <mxGeometry width="150" height="20" as="geometry" />
        </mxCell>
        <mxCell id="m00PbxsXyuJc370gs5CI-133" value="" style="endArrow=none;html=1;rounded=0;fontFamily=Helvetica;fontSize=12;fontColor=default;entryX=0.25;entryY=0;entryDx=0;entryDy=0;exitX=0.25;exitY=1;exitDx=0;exitDy=0;" parent="m00PbxsXyuJc370gs5CI-131" source="m00PbxsXyuJc370gs5CI-132" target="m00PbxsXyuJc370gs5CI-132" edge="1">
          <mxGeometry width="50" height="50" relative="1" as="geometry">
            <mxPoint x="-260" y="120" as="sourcePoint" />
            <mxPoint x="-210" y="70" as="targetPoint" />
          </mxGeometry>
        </mxCell>
        <mxCell id="m00PbxsXyuJc370gs5CI-134" value="F5" style="text;html=1;align=center;verticalAlign=middle;whiteSpace=wrap;rounded=0;fontFamily=Helvetica;fontSize=12;fontColor=default;" parent="m00PbxsXyuJc370gs5CI-131" vertex="1">
          <mxGeometry width="38" height="20" as="geometry" />
        </mxCell>
        <mxCell id="m00PbxsXyuJc370gs5CI-135" value="" style="endArrow=classic;startArrow=classic;html=1;rounded=0;fontFamily=Helvetica;fontSize=12;fontColor=default;entryX=0;entryY=0.5;entryDx=0;entryDy=0;exitX=1;exitY=0.25;exitDx=0;exitDy=0;" parent="1" source="m00PbxsXyuJc370gs5CI-117" target="m00PbxsXyuJc370gs5CI-134" edge="1">
          <mxGeometry width="50" height="50" relative="1" as="geometry">
            <mxPoint x="420" y="930" as="sourcePoint" />
            <mxPoint x="470" y="880" as="targetPoint" />
            <Array as="points">
              <mxPoint x="570" y="790" />
            </Array>
          </mxGeometry>
        </mxCell>
        <mxCell id="m00PbxsXyuJc370gs5CI-136" value="" style="endArrow=none;html=1;rounded=0;fontFamily=Helvetica;fontSize=12;fontColor=default;exitX=0;exitY=0.5;exitDx=0;exitDy=0;entryX=0.5;entryY=0;entryDx=0;entryDy=0;" parent="1" source="m00PbxsXyuJc370gs5CI-114" target="m00PbxsXyuJc370gs5CI-114" edge="1">
          <mxGeometry width="50" height="50" relative="1" as="geometry">
            <mxPoint x="160" y="890" as="sourcePoint" />
            <mxPoint x="210" y="840" as="targetPoint" />
          </mxGeometry>
        </mxCell>
        <mxCell id="m00PbxsXyuJc370gs5CI-138" value="" style="group" parent="1" vertex="1" connectable="0">
          <mxGeometry x="410" y="920" width="100" height="60" as="geometry" />
        </mxCell>
        <mxCell id="m00PbxsXyuJc370gs5CI-139" value="&lt;div&gt;&lt;/div&gt;&lt;div&gt;&lt;br&gt;&lt;/div&gt;&lt;div&gt;Tárgy teljesítése&lt;/div&gt;" style="rounded=0;whiteSpace=wrap;html=1;strokeColor=default;align=center;verticalAlign=middle;fontFamily=Helvetica;fontSize=12;fontColor=default;fillColor=default;" parent="m00PbxsXyuJc370gs5CI-138" vertex="1">
          <mxGeometry width="100" height="60" as="geometry" />
        </mxCell>
        <mxCell id="m00PbxsXyuJc370gs5CI-140" value="" style="endArrow=none;html=1;rounded=0;fontFamily=Helvetica;fontSize=12;fontColor=default;exitX=0;exitY=0.25;exitDx=0;exitDy=0;entryX=1;entryY=0.25;entryDx=0;entryDy=0;" parent="m00PbxsXyuJc370gs5CI-138" source="m00PbxsXyuJc370gs5CI-139" target="m00PbxsXyuJc370gs5CI-139" edge="1">
          <mxGeometry width="50" height="50" relative="1" as="geometry">
            <mxPoint x="190" y="50" as="sourcePoint" />
            <mxPoint x="240" as="targetPoint" />
          </mxGeometry>
        </mxCell>
        <mxCell id="m00PbxsXyuJc370gs5CI-141" value="" style="endArrow=none;html=1;rounded=0;fontFamily=Helvetica;fontSize=12;fontColor=default;exitX=0.25;exitY=0;exitDx=0;exitDy=0;" parent="m00PbxsXyuJc370gs5CI-138" source="m00PbxsXyuJc370gs5CI-139" edge="1">
          <mxGeometry width="50" height="50" relative="1" as="geometry">
            <mxPoint x="190" y="50" as="sourcePoint" />
            <mxPoint x="25" y="15" as="targetPoint" />
          </mxGeometry>
        </mxCell>
        <mxCell id="m00PbxsXyuJc370gs5CI-142" value="6" style="text;html=1;align=center;verticalAlign=middle;whiteSpace=wrap;rounded=0;fontFamily=Helvetica;fontSize=12;fontColor=default;" parent="m00PbxsXyuJc370gs5CI-138" vertex="1">
          <mxGeometry width="25" height="15" as="geometry" />
        </mxCell>
        <mxCell id="m00PbxsXyuJc370gs5CI-143" value="" style="endArrow=classic;html=1;rounded=0;fontFamily=Helvetica;fontSize=12;fontColor=default;exitX=1;exitY=0.5;exitDx=0;exitDy=0;entryX=0;entryY=0.5;entryDx=0;entryDy=0;" parent="1" source="m00PbxsXyuJc370gs5CI-114" target="m00PbxsXyuJc370gs5CI-139" edge="1">
          <mxGeometry width="50" height="50" relative="1" as="geometry">
            <mxPoint x="500" y="850" as="sourcePoint" />
            <mxPoint x="550" y="800" as="targetPoint" />
            <Array as="points" />
          </mxGeometry>
        </mxCell>
        <mxCell id="m00PbxsXyuJc370gs5CI-144" value="&lt;font style=&quot;font-size: 10px;&quot;&gt;[COMPLETIONS] Complete subject&lt;/font&gt;" style="edgeLabel;html=1;align=center;verticalAlign=middle;resizable=0;points=[];strokeColor=default;fontFamily=Helvetica;fontSize=12;fontColor=default;fillColor=default;" parent="m00PbxsXyuJc370gs5CI-143" vertex="1" connectable="0">
          <mxGeometry x="-0.1389" y="3" relative="1" as="geometry">
            <mxPoint x="14" y="-7" as="offset" />
          </mxGeometry>
        </mxCell>
        <mxCell id="m00PbxsXyuJc370gs5CI-145" value="&lt;font style=&quot;font-size: 10px;&quot;&gt;tárgy&lt;/font&gt;" style="edgeLabel;html=1;align=center;verticalAlign=middle;resizable=0;points=[];strokeColor=default;fontFamily=Helvetica;fontSize=12;fontColor=default;fillColor=default;" parent="m00PbxsXyuJc370gs5CI-143" vertex="1" connectable="0">
          <mxGeometry x="0.0333" relative="1" as="geometry">
            <mxPoint x="-5" y="10" as="offset" />
          </mxGeometry>
        </mxCell>
        <mxCell id="m00PbxsXyuJc370gs5CI-146" value="" style="endArrow=classic;html=1;rounded=0;fontFamily=Helvetica;fontSize=12;fontColor=default;exitX=0.5;exitY=0;exitDx=0;exitDy=0;entryX=0.5;entryY=1;entryDx=0;entryDy=0;" parent="1" source="m00PbxsXyuJc370gs5CI-139" target="m00PbxsXyuJc370gs5CI-117" edge="1">
          <mxGeometry width="50" height="50" relative="1" as="geometry">
            <mxPoint x="500" y="850" as="sourcePoint" />
            <mxPoint x="550" y="800" as="targetPoint" />
          </mxGeometry>
        </mxCell>
        <mxCell id="m00PbxsXyuJc370gs5CI-147" value="&lt;font style=&quot;font-size: 10px;&quot;&gt;teljesítés&lt;/font&gt;" style="edgeLabel;html=1;align=center;verticalAlign=middle;resizable=0;points=[];strokeColor=default;fontFamily=Helvetica;fontSize=12;fontColor=default;fillColor=default;" parent="m00PbxsXyuJc370gs5CI-146" vertex="1" connectable="0">
          <mxGeometry x="-0.0619" y="2" relative="1" as="geometry">
            <mxPoint as="offset" />
          </mxGeometry>
        </mxCell>
        <mxCell id="m00PbxsXyuJc370gs5CI-148" value="" style="group" parent="1" vertex="1" connectable="0">
          <mxGeometry x="410" y="1050" width="100" height="60" as="geometry" />
        </mxCell>
        <mxCell id="m00PbxsXyuJc370gs5CI-149" value="&lt;div&gt;&lt;/div&gt;&lt;div&gt;&lt;br&gt;&lt;/div&gt;&lt;div&gt;Alternatív teljesítések módosítása&lt;/div&gt;" style="rounded=0;whiteSpace=wrap;html=1;strokeColor=default;align=center;verticalAlign=middle;fontFamily=Helvetica;fontSize=12;fontColor=default;fillColor=default;" parent="m00PbxsXyuJc370gs5CI-148" vertex="1">
          <mxGeometry width="100" height="60" as="geometry" />
        </mxCell>
        <mxCell id="m00PbxsXyuJc370gs5CI-150" value="" style="endArrow=none;html=1;rounded=0;fontFamily=Helvetica;fontSize=12;fontColor=default;exitX=0;exitY=0.25;exitDx=0;exitDy=0;entryX=1;entryY=0.25;entryDx=0;entryDy=0;" parent="m00PbxsXyuJc370gs5CI-148" source="m00PbxsXyuJc370gs5CI-149" target="m00PbxsXyuJc370gs5CI-149" edge="1">
          <mxGeometry width="50" height="50" relative="1" as="geometry">
            <mxPoint x="190" y="50" as="sourcePoint" />
            <mxPoint x="240" as="targetPoint" />
          </mxGeometry>
        </mxCell>
        <mxCell id="m00PbxsXyuJc370gs5CI-151" value="" style="endArrow=none;html=1;rounded=0;fontFamily=Helvetica;fontSize=12;fontColor=default;exitX=0.25;exitY=0;exitDx=0;exitDy=0;" parent="m00PbxsXyuJc370gs5CI-148" source="m00PbxsXyuJc370gs5CI-149" edge="1">
          <mxGeometry width="50" height="50" relative="1" as="geometry">
            <mxPoint x="190" y="50" as="sourcePoint" />
            <mxPoint x="25" y="15" as="targetPoint" />
          </mxGeometry>
        </mxCell>
        <mxCell id="m00PbxsXyuJc370gs5CI-152" value="7" style="text;html=1;align=center;verticalAlign=middle;whiteSpace=wrap;rounded=0;fontFamily=Helvetica;fontSize=12;fontColor=default;" parent="m00PbxsXyuJc370gs5CI-148" vertex="1">
          <mxGeometry width="25" height="15" as="geometry" />
        </mxCell>
        <mxCell id="m00PbxsXyuJc370gs5CI-153" value="" style="endArrow=classic;html=1;rounded=0;fontFamily=Helvetica;fontSize=12;fontColor=default;exitX=0.5;exitY=1;exitDx=0;exitDy=0;entryX=0;entryY=0.5;entryDx=0;entryDy=0;" parent="1" source="m00PbxsXyuJc370gs5CI-114" target="m00PbxsXyuJc370gs5CI-149" edge="1">
          <mxGeometry width="50" height="50" relative="1" as="geometry">
            <mxPoint x="500" y="950" as="sourcePoint" />
            <mxPoint x="550" y="900" as="targetPoint" />
            <Array as="points">
              <mxPoint x="150" y="1080" />
            </Array>
          </mxGeometry>
        </mxCell>
        <mxCell id="m00PbxsXyuJc370gs5CI-159" value="&lt;font style=&quot;font-size: 10px;&quot;&gt;[AVERAGES] Save alternative semester&lt;/font&gt;" style="edgeLabel;html=1;align=center;verticalAlign=middle;resizable=0;points=[];strokeColor=default;fontFamily=Helvetica;fontSize=12;fontColor=default;fillColor=default;" parent="m00PbxsXyuJc370gs5CI-153" vertex="1" connectable="0">
          <mxGeometry x="-0.0137" y="-4" relative="1" as="geometry">
            <mxPoint x="25" y="-14" as="offset" />
          </mxGeometry>
        </mxCell>
        <mxCell id="m00PbxsXyuJc370gs5CI-160" value="&lt;font style=&quot;font-size: 10px;&quot;&gt;alternatív félév&lt;/font&gt;" style="edgeLabel;html=1;align=center;verticalAlign=middle;resizable=0;points=[];strokeColor=default;fontFamily=Helvetica;fontSize=12;fontColor=default;fillColor=default;" parent="m00PbxsXyuJc370gs5CI-153" vertex="1" connectable="0">
          <mxGeometry x="0.1461" y="-1" relative="1" as="geometry">
            <mxPoint x="-4" y="9" as="offset" />
          </mxGeometry>
        </mxCell>
        <mxCell id="m00PbxsXyuJc370gs5CI-154" value="" style="group" parent="1" vertex="1" connectable="0">
          <mxGeometry x="710" y="1070" width="150" height="20" as="geometry" />
        </mxCell>
        <mxCell id="m00PbxsXyuJc370gs5CI-155" value="&amp;nbsp; &amp;nbsp; &amp;nbsp; &amp;nbsp; &amp;nbsp; AveragesState" style="rounded=0;whiteSpace=wrap;html=1;strokeColor=default;align=center;verticalAlign=middle;fontFamily=Helvetica;fontSize=12;fontColor=default;fillColor=default;" parent="m00PbxsXyuJc370gs5CI-154" vertex="1">
          <mxGeometry width="150" height="20" as="geometry" />
        </mxCell>
        <mxCell id="m00PbxsXyuJc370gs5CI-156" value="" style="endArrow=none;html=1;rounded=0;fontFamily=Helvetica;fontSize=12;fontColor=default;entryX=0.25;entryY=0;entryDx=0;entryDy=0;exitX=0.25;exitY=1;exitDx=0;exitDy=0;" parent="m00PbxsXyuJc370gs5CI-154" source="m00PbxsXyuJc370gs5CI-155" target="m00PbxsXyuJc370gs5CI-155" edge="1">
          <mxGeometry width="50" height="50" relative="1" as="geometry">
            <mxPoint x="-324.99999999999994" y="120" as="sourcePoint" />
            <mxPoint x="-262.49999999999994" y="70" as="targetPoint" />
          </mxGeometry>
        </mxCell>
        <mxCell id="m00PbxsXyuJc370gs5CI-157" value="S3" style="text;html=1;align=center;verticalAlign=middle;whiteSpace=wrap;rounded=0;fontFamily=Helvetica;fontSize=12;fontColor=default;" parent="m00PbxsXyuJc370gs5CI-154" vertex="1">
          <mxGeometry width="37.5" height="20" as="geometry" />
        </mxCell>
        <mxCell id="m00PbxsXyuJc370gs5CI-158" value="" style="endArrow=classic;html=1;rounded=0;fontFamily=Helvetica;fontSize=12;fontColor=default;entryX=0;entryY=0.5;entryDx=0;entryDy=0;exitX=1;exitY=0.5;exitDx=0;exitDy=0;" parent="1" source="m00PbxsXyuJc370gs5CI-149" target="m00PbxsXyuJc370gs5CI-157" edge="1">
          <mxGeometry width="50" height="50" relative="1" as="geometry">
            <mxPoint x="500" y="950" as="sourcePoint" />
            <mxPoint x="550" y="900" as="targetPoint" />
          </mxGeometry>
        </mxCell>
        <mxCell id="m00PbxsXyuJc370gs5CI-161" value="" style="rounded=0;whiteSpace=wrap;html=1;fillColor=none;" parent="1" vertex="1">
          <mxGeometry x="310" y="1160" width="300" height="450" as="geometry" />
        </mxCell>
        <mxCell id="m00PbxsXyuJc370gs5CI-162" value="Vendég&lt;div&gt;felhasználó&lt;/div&gt;" style="ellipse;whiteSpace=wrap;html=1;" parent="1" vertex="1">
          <mxGeometry x="90" y="1305" width="120" height="50" as="geometry" />
        </mxCell>
        <mxCell id="m00PbxsXyuJc370gs5CI-163" value="UserEffects" style="text;html=1;align=center;verticalAlign=middle;whiteSpace=wrap;rounded=0;" parent="1" vertex="1">
          <mxGeometry x="330" y="1140" width="60" height="30" as="geometry" />
        </mxCell>
        <mxCell id="m00PbxsXyuJc370gs5CI-164" value="" style="group" parent="1" vertex="1" connectable="0">
          <mxGeometry x="410" y="1190" width="100" height="60" as="geometry" />
        </mxCell>
        <mxCell id="m00PbxsXyuJc370gs5CI-165" value="&lt;div&gt;&lt;/div&gt;&lt;div&gt;&lt;br&gt;&lt;/div&gt;&lt;div&gt;Bejelentkezés&lt;/div&gt;" style="rounded=0;whiteSpace=wrap;html=1;strokeColor=default;align=center;verticalAlign=middle;fontFamily=Helvetica;fontSize=12;fontColor=default;fillColor=default;" parent="m00PbxsXyuJc370gs5CI-164" vertex="1">
          <mxGeometry width="100" height="60" as="geometry" />
        </mxCell>
        <mxCell id="m00PbxsXyuJc370gs5CI-166" value="" style="endArrow=none;html=1;rounded=0;fontFamily=Helvetica;fontSize=12;fontColor=default;exitX=0;exitY=0.25;exitDx=0;exitDy=0;entryX=1;entryY=0.25;entryDx=0;entryDy=0;" parent="m00PbxsXyuJc370gs5CI-164" source="m00PbxsXyuJc370gs5CI-165" target="m00PbxsXyuJc370gs5CI-165" edge="1">
          <mxGeometry width="50" height="50" relative="1" as="geometry">
            <mxPoint x="190" y="50" as="sourcePoint" />
            <mxPoint x="240" as="targetPoint" />
          </mxGeometry>
        </mxCell>
        <mxCell id="m00PbxsXyuJc370gs5CI-167" value="" style="endArrow=none;html=1;rounded=0;fontFamily=Helvetica;fontSize=12;fontColor=default;exitX=0.25;exitY=0;exitDx=0;exitDy=0;" parent="m00PbxsXyuJc370gs5CI-164" source="m00PbxsXyuJc370gs5CI-165" edge="1">
          <mxGeometry width="50" height="50" relative="1" as="geometry">
            <mxPoint x="190" y="50" as="sourcePoint" />
            <mxPoint x="25" y="15" as="targetPoint" />
          </mxGeometry>
        </mxCell>
        <mxCell id="m00PbxsXyuJc370gs5CI-168" value="8" style="text;html=1;align=center;verticalAlign=middle;whiteSpace=wrap;rounded=0;fontFamily=Helvetica;fontSize=12;fontColor=default;" parent="m00PbxsXyuJc370gs5CI-164" vertex="1">
          <mxGeometry width="25" height="15" as="geometry" />
        </mxCell>
        <mxCell id="m00PbxsXyuJc370gs5CI-169" value="" style="endArrow=classic;html=1;rounded=0;fontFamily=Helvetica;fontSize=12;fontColor=default;exitX=0.5;exitY=0;exitDx=0;exitDy=0;entryX=0;entryY=0.5;entryDx=0;entryDy=0;" parent="1" source="m00PbxsXyuJc370gs5CI-162" target="m00PbxsXyuJc370gs5CI-165" edge="1">
          <mxGeometry width="50" height="50" relative="1" as="geometry">
            <mxPoint x="420" y="1330" as="sourcePoint" />
            <mxPoint x="470" y="1280" as="targetPoint" />
            <Array as="points">
              <mxPoint x="150" y="1220" />
            </Array>
          </mxGeometry>
        </mxCell>
        <mxCell id="m00PbxsXyuJc370gs5CI-170" value="&lt;span style=&quot;font-size: 10px;&quot;&gt;[USER] Login&lt;/span&gt;" style="edgeLabel;html=1;align=center;verticalAlign=middle;resizable=0;points=[];strokeColor=default;fontFamily=Helvetica;fontSize=12;fontColor=default;fillColor=default;" parent="m00PbxsXyuJc370gs5CI-169" vertex="1" connectable="0">
          <mxGeometry x="-0.4991" relative="1" as="geometry">
            <mxPoint x="69" y="-10" as="offset" />
          </mxGeometry>
        </mxCell>
        <mxCell id="m00PbxsXyuJc370gs5CI-171" value="&lt;font style=&quot;font-size: 10px;&quot;&gt;e-mail cím, jelszó&lt;/font&gt;" style="edgeLabel;html=1;align=center;verticalAlign=middle;resizable=0;points=[];strokeColor=default;fontFamily=Helvetica;fontSize=12;fontColor=default;fillColor=default;" parent="m00PbxsXyuJc370gs5CI-169" vertex="1" connectable="0">
          <mxGeometry x="-0.7718" y="-1" relative="1" as="geometry">
            <mxPoint x="69" y="-36" as="offset" />
          </mxGeometry>
        </mxCell>
        <mxCell id="m00PbxsXyuJc370gs5CI-185" value="" style="group" parent="1" vertex="1" connectable="0">
          <mxGeometry x="410" y="1300" width="100" height="60" as="geometry" />
        </mxCell>
        <mxCell id="m00PbxsXyuJc370gs5CI-186" value="&lt;div&gt;&lt;/div&gt;&lt;div&gt;&lt;br&gt;&lt;/div&gt;&lt;div&gt;Regisztráció&lt;/div&gt;" style="rounded=0;whiteSpace=wrap;html=1;strokeColor=default;align=center;verticalAlign=middle;fontFamily=Helvetica;fontSize=12;fontColor=default;fillColor=default;" parent="m00PbxsXyuJc370gs5CI-185" vertex="1">
          <mxGeometry width="100" height="60" as="geometry" />
        </mxCell>
        <mxCell id="m00PbxsXyuJc370gs5CI-187" value="" style="endArrow=none;html=1;rounded=0;fontFamily=Helvetica;fontSize=12;fontColor=default;exitX=0;exitY=0.25;exitDx=0;exitDy=0;entryX=1;entryY=0.25;entryDx=0;entryDy=0;" parent="m00PbxsXyuJc370gs5CI-185" source="m00PbxsXyuJc370gs5CI-186" target="m00PbxsXyuJc370gs5CI-186" edge="1">
          <mxGeometry width="50" height="50" relative="1" as="geometry">
            <mxPoint x="190" y="50" as="sourcePoint" />
            <mxPoint x="240" as="targetPoint" />
          </mxGeometry>
        </mxCell>
        <mxCell id="m00PbxsXyuJc370gs5CI-188" value="" style="endArrow=none;html=1;rounded=0;fontFamily=Helvetica;fontSize=12;fontColor=default;exitX=0.25;exitY=0;exitDx=0;exitDy=0;" parent="m00PbxsXyuJc370gs5CI-185" source="m00PbxsXyuJc370gs5CI-186" edge="1">
          <mxGeometry width="50" height="50" relative="1" as="geometry">
            <mxPoint x="190" y="50" as="sourcePoint" />
            <mxPoint x="25" y="15" as="targetPoint" />
          </mxGeometry>
        </mxCell>
        <mxCell id="m00PbxsXyuJc370gs5CI-189" value="9" style="text;html=1;align=center;verticalAlign=middle;whiteSpace=wrap;rounded=0;fontFamily=Helvetica;fontSize=12;fontColor=default;" parent="m00PbxsXyuJc370gs5CI-185" vertex="1">
          <mxGeometry width="25" height="15" as="geometry" />
        </mxCell>
        <mxCell id="m00PbxsXyuJc370gs5CI-190" value="" style="endArrow=classic;html=1;rounded=0;fontFamily=Helvetica;fontSize=12;fontColor=default;exitX=1;exitY=0.5;exitDx=0;exitDy=0;entryX=0;entryY=0.5;entryDx=0;entryDy=0;" parent="1" source="m00PbxsXyuJc370gs5CI-162" target="m00PbxsXyuJc370gs5CI-186" edge="1">
          <mxGeometry width="50" height="50" relative="1" as="geometry">
            <mxPoint x="430" y="1400" as="sourcePoint" />
            <mxPoint x="480" y="1350" as="targetPoint" />
          </mxGeometry>
        </mxCell>
        <mxCell id="m00PbxsXyuJc370gs5CI-191" value="&lt;font style=&quot;font-size: 10px;&quot;&gt;[USER] Register&lt;/font&gt;" style="edgeLabel;html=1;align=center;verticalAlign=middle;resizable=0;points=[];strokeColor=default;fontFamily=Helvetica;fontSize=12;fontColor=default;fillColor=default;" parent="m00PbxsXyuJc370gs5CI-190" vertex="1" connectable="0">
          <mxGeometry x="-0.521" relative="1" as="geometry">
            <mxPoint x="32" y="-10" as="offset" />
          </mxGeometry>
        </mxCell>
        <mxCell id="5XRV7Zxs12aFuKhWiQk1-8" value="&lt;font style=&quot;font-size: 10px;&quot;&gt;e-mail cím, felhasználónév, jelszó&lt;/font&gt;" style="edgeLabel;html=1;align=center;verticalAlign=middle;resizable=0;points=[];" vertex="1" connectable="0" parent="m00PbxsXyuJc370gs5CI-190">
          <mxGeometry x="-0.4245" relative="1" as="geometry">
            <mxPoint x="23" y="10" as="offset" />
          </mxGeometry>
        </mxCell>
        <mxCell id="5XRV7Zxs12aFuKhWiQk1-1" value="" style="group" vertex="1" connectable="0" parent="1">
          <mxGeometry x="710" y="1380" width="150" height="20" as="geometry" />
        </mxCell>
        <mxCell id="5XRV7Zxs12aFuKhWiQk1-2" value="&amp;nbsp; &amp;nbsp; &amp;nbsp; &amp;nbsp; &amp;nbsp; &amp;nbsp;auth-user" style="rounded=0;whiteSpace=wrap;html=1;strokeColor=default;align=center;verticalAlign=middle;fontFamily=Helvetica;fontSize=12;fontColor=default;fillColor=default;" vertex="1" parent="5XRV7Zxs12aFuKhWiQk1-1">
          <mxGeometry width="150" height="20" as="geometry" />
        </mxCell>
        <mxCell id="5XRV7Zxs12aFuKhWiQk1-3" value="" style="endArrow=none;html=1;rounded=0;fontFamily=Helvetica;fontSize=12;fontColor=default;entryX=0.25;entryY=0;entryDx=0;entryDy=0;exitX=0.25;exitY=1;exitDx=0;exitDy=0;" edge="1" parent="5XRV7Zxs12aFuKhWiQk1-1" source="5XRV7Zxs12aFuKhWiQk1-2" target="5XRV7Zxs12aFuKhWiQk1-2">
          <mxGeometry width="50" height="50" relative="1" as="geometry">
            <mxPoint x="-260" y="120" as="sourcePoint" />
            <mxPoint x="-210" y="70" as="targetPoint" />
          </mxGeometry>
        </mxCell>
        <mxCell id="5XRV7Zxs12aFuKhWiQk1-4" value="F6" style="text;html=1;align=center;verticalAlign=middle;whiteSpace=wrap;rounded=0;fontFamily=Helvetica;fontSize=12;fontColor=default;" vertex="1" parent="5XRV7Zxs12aFuKhWiQk1-1">
          <mxGeometry width="38" height="20" as="geometry" />
        </mxCell>
        <mxCell id="5XRV7Zxs12aFuKhWiQk1-6" value="" style="endArrow=classic;html=1;rounded=0;exitX=1;exitY=0.5;exitDx=0;exitDy=0;entryX=0;entryY=0.5;entryDx=0;entryDy=0;" edge="1" parent="1" source="m00PbxsXyuJc370gs5CI-186" target="5XRV7Zxs12aFuKhWiQk1-4">
          <mxGeometry width="50" height="50" relative="1" as="geometry">
            <mxPoint x="620" y="1370" as="sourcePoint" />
            <mxPoint x="670" y="1320" as="targetPoint" />
            <Array as="points">
              <mxPoint x="540" y="1390" />
            </Array>
          </mxGeometry>
        </mxCell>
        <mxCell id="5XRV7Zxs12aFuKhWiQk1-9" value="" style="group" vertex="1" connectable="0" parent="1">
          <mxGeometry x="410" y="1410" width="100" height="60" as="geometry" />
        </mxCell>
        <mxCell id="5XRV7Zxs12aFuKhWiQk1-10" value="&lt;div&gt;&lt;/div&gt;&lt;div&gt;&lt;br&gt;&lt;/div&gt;&lt;div&gt;Felhasználó profiljának frissítése&lt;/div&gt;" style="rounded=0;whiteSpace=wrap;html=1;strokeColor=default;align=center;verticalAlign=middle;fontFamily=Helvetica;fontSize=12;fontColor=default;fillColor=default;" vertex="1" parent="5XRV7Zxs12aFuKhWiQk1-9">
          <mxGeometry width="100" height="60" as="geometry" />
        </mxCell>
        <mxCell id="5XRV7Zxs12aFuKhWiQk1-11" value="" style="endArrow=none;html=1;rounded=0;fontFamily=Helvetica;fontSize=12;fontColor=default;exitX=0;exitY=0.25;exitDx=0;exitDy=0;entryX=1;entryY=0.25;entryDx=0;entryDy=0;" edge="1" parent="5XRV7Zxs12aFuKhWiQk1-9" source="5XRV7Zxs12aFuKhWiQk1-10" target="5XRV7Zxs12aFuKhWiQk1-10">
          <mxGeometry width="50" height="50" relative="1" as="geometry">
            <mxPoint x="190" y="50" as="sourcePoint" />
            <mxPoint x="240" as="targetPoint" />
          </mxGeometry>
        </mxCell>
        <mxCell id="5XRV7Zxs12aFuKhWiQk1-12" value="" style="endArrow=none;html=1;rounded=0;fontFamily=Helvetica;fontSize=12;fontColor=default;exitX=0.25;exitY=0;exitDx=0;exitDy=0;" edge="1" parent="5XRV7Zxs12aFuKhWiQk1-9" source="5XRV7Zxs12aFuKhWiQk1-10">
          <mxGeometry width="50" height="50" relative="1" as="geometry">
            <mxPoint x="190" y="50" as="sourcePoint" />
            <mxPoint x="25" y="15" as="targetPoint" />
          </mxGeometry>
        </mxCell>
        <mxCell id="5XRV7Zxs12aFuKhWiQk1-13" value="10" style="text;html=1;align=center;verticalAlign=middle;whiteSpace=wrap;rounded=0;fontFamily=Helvetica;fontSize=12;fontColor=default;" vertex="1" parent="5XRV7Zxs12aFuKhWiQk1-9">
          <mxGeometry width="25" height="15" as="geometry" />
        </mxCell>
        <mxCell id="5XRV7Zxs12aFuKhWiQk1-14" value="Felhasználó" style="ellipse;whiteSpace=wrap;html=1;" vertex="1" parent="1">
          <mxGeometry x="90" y="1470" width="120" height="50" as="geometry" />
        </mxCell>
        <mxCell id="5XRV7Zxs12aFuKhWiQk1-15" value="" style="endArrow=none;html=1;rounded=0;fontFamily=Helvetica;fontSize=12;fontColor=default;exitX=0;exitY=0.5;exitDx=0;exitDy=0;entryX=0.5;entryY=0;entryDx=0;entryDy=0;" edge="1" parent="1" source="5XRV7Zxs12aFuKhWiQk1-14" target="5XRV7Zxs12aFuKhWiQk1-14">
          <mxGeometry width="50" height="50" relative="1" as="geometry">
            <mxPoint x="160" y="1445" as="sourcePoint" />
            <mxPoint x="210" y="1395" as="targetPoint" />
          </mxGeometry>
        </mxCell>
        <mxCell id="5XRV7Zxs12aFuKhWiQk1-16" value="" style="endArrow=classic;html=1;rounded=0;exitX=0.5;exitY=0;exitDx=0;exitDy=0;entryX=0;entryY=0.5;entryDx=0;entryDy=0;" edge="1" parent="1" source="5XRV7Zxs12aFuKhWiQk1-14" target="5XRV7Zxs12aFuKhWiQk1-10">
          <mxGeometry width="50" height="50" relative="1" as="geometry">
            <mxPoint x="480" y="1430" as="sourcePoint" />
            <mxPoint x="530" y="1380" as="targetPoint" />
            <Array as="points">
              <mxPoint x="150" y="1440" />
            </Array>
          </mxGeometry>
        </mxCell>
        <mxCell id="5XRV7Zxs12aFuKhWiQk1-17" value="&lt;font style=&quot;font-size: 10px;&quot;&gt;[USER] Update user profile&lt;/font&gt;" style="edgeLabel;html=1;align=center;verticalAlign=middle;resizable=0;points=[];" vertex="1" connectable="0" parent="5XRV7Zxs12aFuKhWiQk1-16">
          <mxGeometry x="-0.0876" y="-2" relative="1" as="geometry">
            <mxPoint x="-7" y="-12" as="offset" />
          </mxGeometry>
        </mxCell>
        <mxCell id="5XRV7Zxs12aFuKhWiQk1-18" value="&lt;font style=&quot;font-size: 10px;&quot;&gt;felhasználói beállítások&lt;/font&gt;" style="edgeLabel;html=1;align=center;verticalAlign=middle;resizable=0;points=[];" vertex="1" connectable="0" parent="5XRV7Zxs12aFuKhWiQk1-16">
          <mxGeometry x="-0.0968" relative="1" as="geometry">
            <mxPoint x="-5" y="10" as="offset" />
          </mxGeometry>
        </mxCell>
        <mxCell id="5XRV7Zxs12aFuKhWiQk1-19" value="" style="endArrow=classic;html=1;rounded=0;entryX=0;entryY=0.5;entryDx=0;entryDy=0;exitX=1;exitY=0.5;exitDx=0;exitDy=0;" edge="1" parent="1" source="5XRV7Zxs12aFuKhWiQk1-10" target="5XRV7Zxs12aFuKhWiQk1-4">
          <mxGeometry width="50" height="50" relative="1" as="geometry">
            <mxPoint x="480" y="1430" as="sourcePoint" />
            <mxPoint x="530" y="1380" as="targetPoint" />
            <Array as="points">
              <mxPoint x="540" y="1390" />
            </Array>
          </mxGeometry>
        </mxCell>
        <mxCell id="5XRV7Zxs12aFuKhWiQk1-20" value="" style="group" vertex="1" connectable="0" parent="1">
          <mxGeometry x="410" y="1520" width="100" height="60" as="geometry" />
        </mxCell>
        <mxCell id="5XRV7Zxs12aFuKhWiQk1-21" value="&lt;div&gt;&lt;/div&gt;&lt;div&gt;&lt;br&gt;&lt;/div&gt;&lt;div&gt;Kijelentkezés&lt;/div&gt;" style="rounded=0;whiteSpace=wrap;html=1;strokeColor=default;align=center;verticalAlign=middle;fontFamily=Helvetica;fontSize=12;fontColor=default;fillColor=default;" vertex="1" parent="5XRV7Zxs12aFuKhWiQk1-20">
          <mxGeometry width="100" height="60" as="geometry" />
        </mxCell>
        <mxCell id="5XRV7Zxs12aFuKhWiQk1-22" value="" style="endArrow=none;html=1;rounded=0;fontFamily=Helvetica;fontSize=12;fontColor=default;exitX=0;exitY=0.25;exitDx=0;exitDy=0;entryX=1;entryY=0.25;entryDx=0;entryDy=0;" edge="1" parent="5XRV7Zxs12aFuKhWiQk1-20" source="5XRV7Zxs12aFuKhWiQk1-21" target="5XRV7Zxs12aFuKhWiQk1-21">
          <mxGeometry width="50" height="50" relative="1" as="geometry">
            <mxPoint x="190" y="50" as="sourcePoint" />
            <mxPoint x="240" as="targetPoint" />
          </mxGeometry>
        </mxCell>
        <mxCell id="5XRV7Zxs12aFuKhWiQk1-23" value="" style="endArrow=none;html=1;rounded=0;fontFamily=Helvetica;fontSize=12;fontColor=default;exitX=0.25;exitY=0;exitDx=0;exitDy=0;" edge="1" parent="5XRV7Zxs12aFuKhWiQk1-20" source="5XRV7Zxs12aFuKhWiQk1-21">
          <mxGeometry width="50" height="50" relative="1" as="geometry">
            <mxPoint x="190" y="50" as="sourcePoint" />
            <mxPoint x="25" y="15" as="targetPoint" />
          </mxGeometry>
        </mxCell>
        <mxCell id="5XRV7Zxs12aFuKhWiQk1-24" value="11" style="text;html=1;align=center;verticalAlign=middle;whiteSpace=wrap;rounded=0;fontFamily=Helvetica;fontSize=12;fontColor=default;" vertex="1" parent="5XRV7Zxs12aFuKhWiQk1-20">
          <mxGeometry width="25" height="15" as="geometry" />
        </mxCell>
        <mxCell id="5XRV7Zxs12aFuKhWiQk1-25" value="" style="endArrow=classic;html=1;rounded=0;entryX=0;entryY=0.5;entryDx=0;entryDy=0;exitX=0.5;exitY=1;exitDx=0;exitDy=0;" edge="1" parent="1" source="5XRV7Zxs12aFuKhWiQk1-14" target="5XRV7Zxs12aFuKhWiQk1-21">
          <mxGeometry width="50" height="50" relative="1" as="geometry">
            <mxPoint x="480" y="1510" as="sourcePoint" />
            <mxPoint x="530" y="1460" as="targetPoint" />
            <Array as="points">
              <mxPoint x="150" y="1550" />
            </Array>
          </mxGeometry>
        </mxCell>
        <mxCell id="5XRV7Zxs12aFuKhWiQk1-26" value="&lt;font style=&quot;font-size: 10px;&quot;&gt;[USER] Logout&lt;/font&gt;" style="edgeLabel;html=1;align=center;verticalAlign=middle;resizable=0;points=[];" vertex="1" connectable="0" parent="5XRV7Zxs12aFuKhWiQk1-25">
          <mxGeometry x="-0.0347" y="-3" relative="1" as="geometry">
            <mxPoint x="-10" y="-13" as="offset" />
          </mxGeometry>
        </mxCell>
      </root>
    </mxGraphModel>
  </diagram>
</mxfile>
